name D:\school\WTK\thesis\model\3dpredictsim\Results\batch_tmt_lin\Pog_s1_tmt_bCst_d05_k200_ig24.mot
datacolumns 128
datarows 4
range 1.12600489 1.15978504
endheader
time	pelvis_tilt	pelvis_list	pelvis_rotation	pelvis_tx	pelvis_ty	pelvis_tz	hip_flexion_l	hip_adduction_l	hip_rotation_l	hip_flexion_r	hip_adduction_r	hip_rotation_r	knee_angle_l	knee_angle_r	ankle_angle_l	ankle_angle_r	subtalar_angle_l	subtalar_angle_r	tmt_angle_l	tmt_angle_r	mtp_angle_l	mtp_angle_r	lumbar_extension	lumbar_bending	lumbar_rotation	arm_flex_l	arm_add_l	arm_rot_l	arm_flex_r	arm_add_r	arm_rot_r	elbow_flex_l	elbow_flex_r	pro_sup_l	pro_sup_r	glut_med1_l/activation	glut_med2_l/activation	glut_med3_l/activation	glut_min1_l/activation	glut_min2_l/activation	glut_min3_l/activation	semimem_l/activation	semiten_l/activation	bifemlh_l/activation	bifemsh_l/activation	sar_l/activation	add_long_l/activation	add_brev_l/activation	add_mag1_l/activation	add_mag2_l/activation	add_mag3_l/activation	tfl_l/activation	pect_l/activation	grac_l/activation	glut_max1_l/activation	glut_max2_l/activation	glut_max3_l/activation	iliacus_l/activation	psoas_l/activation	quad_fem_l/activation	gem_l/activation	peri_l/activation	rect_fem_l/activation	vas_med_l/activation	vas_int_l/activation	vas_lat_l/activation	med_gas_l/activation	lat_gas_l/activation	soleus_l/activation	tib_post_l/activation	flex_dig_l/activation	flex_hal_l/activation	tib_ant_l/activation	per_brev_l/activation	per_long_l/activation	per_tert_l/activation	ext_dig_l/activation	ext_hal_l/activation	ercspn_l/activation	intobl_l/activation	extobl_l/activation	glut_med1_r/activation	glut_med2_r/activation	glut_med3_r/activation	glut_min1_r/activation	glut_min2_r/activation	glut_min3_r/activation	semimem_r/activation	semiten_r/activation	bifemlh_r/activation	bifemsh_r/activation	sar_r/activation	add_long_r/activation	add_brev_r/activation	add_mag1_r/activation	add_mag2_r/activation	add_mag3_r/activation	tfl_r/activation	pect_r/activation	grac_r/activation	glut_max1_r/activation	glut_max2_r/activation	glut_max3_r/activation	iliacus_r/activation	psoas_r/activation	quad_fem_r/activation	gem_r/activation	peri_r/activation	rect_fem_r/activation	vas_med_r/activation	vas_int_r/activation	vas_lat_r/activation	med_gas_r/activation	lat_gas_r/activation	soleus_r/activation	tib_post_r/activation	flex_dig_r/activation	flex_hal_r/activation	tib_ant_r/activation	per_brev_r/activation	per_long_r/activation	per_tert_r/activation	ext_dig_r/activation	ext_hal_r/activation	ercspn_r/activation	intobl_r/activation	extobl_r/activation	
          1.12600489	         -2.92932641	         -2.40507535	          6.38975800	          1.40750611	          0.85708825	         -0.00236833	        -17.03562362	         -2.09106460	          8.67105726	         31.73634748	          3.43667610	         -1.05938845	        -11.33430694	        -14.43160377	         -4.21038132	          6.08875350	         12.86132039	         -3.69761350	          8.16671842	          0.16826436	         21.24568093	         -0.08303274	         -1.68228093	          0.79812707	         -2.21924267	          7.50294297	        -13.46870004	         18.44982231	         -9.90571061	        -13.58438988	          7.80792940	         39.07561477	         14.68846467	         86.51662706	         86.51662706	          0.26607207	          0.09609534	          0.05279553	          0.29389359	          0.19982094	          0.10119777	          0.05000036	          0.05000004	          0.05000003	          0.05938338	          0.10516603	          0.10534883	          0.10487689	          0.05000035	          0.05000047	          0.05000014	          0.28909392	          0.11124351	          0.05000048	          0.05000034	          0.05000020	          0.05000017	          0.37347619	          0.54040206	          0.05000006	          0.05000016	          0.05000007	          0.25034184	          0.09180706	          0.05701315	          0.09197665	          0.26390294	          0.35820254	          0.28635101	          0.21254357	          0.23156945	          0.28806740	          0.05000000	          0.05938340	          0.14979932	          0.05000002	          0.05000000	          0.05000002	          0.05000000	          0.05000002	          0.06633598	          0.05938336	          0.05938336	          0.05000003	          0.05938338	          0.05938337	          0.05938331	          0.10491985	          0.05938341	          0.20393258	          0.05000037	          0.05000009	          0.14032642	          0.31842623	          0.09186885	          0.14282220	          0.09555188	          0.05000004	          0.09307527	          0.13649603	          0.05000021	          0.05000018	          0.14869601	          0.05938342	          0.05000290	          0.29580155	          0.31342622	          0.14910269	          0.05000018	          0.13480599	          0.13842575	          0.11976967	          0.06762643	          0.07169362	          0.06486815	          0.05000000	          0.05000014	          0.05000019	          0.52992606	          0.35245244	          0.20262505	          0.31177515	          0.55173079	          0.31530799	          0.05877071	          0.10248029	          0.09948392	
          1.13726494	         -2.92339199	         -2.49968477	          6.66309142	          1.42487515	          0.85598570	         -0.00216696	        -16.85039276	         -2.39995799	          8.42252235	         31.00560122	          3.86283355	         -0.79970748	        -13.29554645	        -14.67977381	         -4.99976145	          5.35000680	         13.93242309	         -4.18364562	          6.88995595	          0.14633955	         22.65035074	         -0.06595744	         -1.45676099	          1.01761928	         -2.30306955	          7.19101509	        -13.49475663	         18.61738656	        -11.03202392	        -13.56646275	          7.68712442	         40.26460810	         14.56542614	         86.51662706	         86.51662706	          0.22402911	          0.08091099	          0.05938296	          0.24745446	          0.16824655	          0.08520717	          0.05000064	          0.05000012	          0.05000028	          0.05000003	          0.08854843	          0.21842801	          0.16393218	          0.12216941	          0.05938359	          0.05938345	          0.24341320	          0.09948349	          0.05000182	          0.05000279	          0.05026913	          0.05938335	          0.31446193	          0.49881356	          0.05938337	          0.05938338	          0.05000030	          0.21078446	          0.14015475	          0.14032608	          0.13824131	          0.22220271	          0.30160171	          0.24110369	          0.17895883	          0.19497839	          0.24254888	          0.05000003	          0.05000004	          0.13332308	          0.05000002	          0.05000007	          0.05000007	          0.06500200	          0.07035965	          0.05941253	          0.05000000	          0.05000000	          0.10199227	          0.05000001	          0.05000001	          0.05000001	          0.08834111	          0.05000005	          0.17170849	          0.05000001	          0.05000168	          0.11815299	          0.27762146	          0.37154586	          0.23891604	          0.10873498	          0.05000009	          0.07861653	          0.14190169	          0.06028093	          0.10356158	          0.12520025	          0.05000006	          0.05938363	          0.55983346	          0.26390066	          0.12554246	          0.06042131	          0.19576269	          0.20396362	          0.17222831	          0.06291373	          0.06879057	          0.05461811	          0.05938341	          0.07052771	          0.07052759	          0.51583874	          0.41080690	          0.24262149	          0.30447252	          0.53608224	          0.26548509	          0.05000000	          0.08628702	          0.08376412	
          1.14852499	         -2.91271216	         -2.59636356	          6.90144571	          1.44252463	          0.85478530	         -0.00198864	        -16.60204843	         -2.69528862	          8.16143370	         30.07160535	          4.19733258	         -0.51112852	        -15.35069522	        -15.04932392	         -5.90352594	          4.86586202	         14.90363711	         -4.68314647	          5.48403750	         -0.14932073	         23.86955474	         -0.16892322	         -1.21067912	          1.24505043	         -2.37419767	          6.78110537	        -13.52322396	         18.68940169	        -12.15067166	        -13.55805366	          7.64373312	         41.44291950	         14.44559278	         86.51662706	         86.51662706	          0.37327598	          0.06812597	          0.05000000	          0.35727423	          0.14166137	          0.07174330	          0.05000034	          0.05000001	          0.05000001	          0.05000011	          0.08376324	          0.18391345	          0.13802871	          0.10286501	          0.05000024	          0.05000009	          0.20495071	          0.08376405	          0.05000009	          0.05000020	          0.05000010	          0.05000006	          0.26477274	          0.46534212	          0.05000001	          0.05000009	          0.05000002	          0.17747767	          0.11800842	          0.11815267	          0.11639733	          0.18709169	          0.25394458	          0.20300605	          0.15068093	          0.16416919	          0.20422290	          0.10721152	          0.17796911	          0.18340813	          0.05000031	          0.16782602	          0.05000020	          0.06714370	          0.05924187	          0.05002456	          0.27915721	          0.29141328	          0.34428556	          0.45131922	          0.25486738	          0.19989539	          0.10173290	          0.10320013	          0.14767315	          0.08376366	          0.05938322	          0.09948323	          0.23375354	          0.31283662	          0.20116412	          0.11499381	          0.05000005	          0.06619444	          0.11947956	          0.17174075	          0.14434667	          0.10541695	          0.05751065	          0.05000027	          0.47137224	          0.22220082	          0.26661227	          0.05087393	          0.16482956	          0.17173463	          0.14501392	          0.05297252	          0.05792074	          0.05502250	          0.05000004	          0.05938343	          0.05938338	          0.59539383	          0.45029132	          0.22214212	          0.51036484	          0.61452112	          0.32877354	          0.06115116	          0.09948314	          0.07052826	
          1.15978504	         -2.89975607	         -2.68442921	          7.09974134	          1.46018285	          0.85353722	         -0.00178766	        -16.24944258	         -2.96616749	          7.90506141	         29.06447845	          4.50591934	         -0.22622779	        -17.55489936	        -15.35165993	         -6.86622815	          4.44531466	         15.77855442	         -5.21218568	          4.07122224	         -0.06655669	         24.60523714	         -0.18685635	         -0.97252359	          1.46798996	         -2.43250582	          6.32289312	        -13.56073305	         18.69618631	        -13.20271510	        -13.55311952	          7.68798521	         42.58003687	         14.29902691	         86.51662706	         86.51662706	          0.31429335	          0.05736116	          0.05000001	          0.30082010	          0.11927698	          0.06040691	          0.05000129	          0.05000048	          0.05000070	          0.05000005	          0.07052756	          0.19540539	          0.13232643	          0.15852562	          0.05000123	          0.13082239	          0.17256576	          0.07052830	          0.05000024	          0.05000047	          0.05000030	          0.05000020	          0.22293508	          0.39842885	          0.05000002	          0.05000013	          0.05000004	          0.14943381	          0.09936151	          0.09948297	          0.09800499	          0.15752868	          0.21381791	          0.17092836	          0.12687132	          0.13822827	          0.17195295	          0.19109398	          0.18417309	          0.16364462	          0.05126290	          0.25859654	          0.13853756	          0.09562542	          0.05000000	          0.05000000	          0.41103512	          0.43065678	          0.45672297	          0.38000479	          0.21459532	          0.34418165	          0.08565781	          0.11877874	          0.12433881	          0.07052789	          0.05000006	          0.08376355	          0.19681734	          0.26340427	          0.23823157	          0.16636513	          0.05000004	          0.05573533	          0.11658286	          0.26665740	          0.20200166	          0.16329025	          0.05000001	          0.05000001	          0.39688908	          0.18709011	          0.24757259	          0.05000000	          0.19728823	          0.23142895	          0.17869561	          0.05000000	          0.05000000	          0.05000000	          0.05000000	          0.05000007	          0.05000003	          0.66960199	          0.37913924	          0.18704068	          0.71022673	          0.64010049	          0.43424914	          0.08094246	          0.08376346	          0.05938385	
